<svg width="32" height="32" viewBox="0 0 32 32" fill="none" xmlns="http://www.w3.org/2000/svg">
<rect width="32" height="32" rx="7.5" fill="white"/>
<path d="M22 19L25 22M25 22L22 25M25 22H22.5689C21.6297 22 21.1601 22 20.7338 21.8705C20.3564 21.7559 20.0054 21.5681 19.7007 21.3176C19.3565 21.0348 19.096 20.644 18.575 19.8626L18.3333 19.5M22 7L25 10M25 10L22 13M25 10H22.5689C21.6297 10 21.1601 10 20.7338 10.1295C20.3564 10.2441 20.0054 10.4319 19.7007 10.6824C19.3565 10.9652 19.096 11.356 18.575 12.1374L13.425 19.8626C12.904 20.644 12.6435 21.0348 12.2993 21.3176C11.9946 21.5681 11.6436 21.7559 11.2662 21.8705C10.8399 22 10.3703 22 9.43112 22H7M7 10H9.43112C10.3703 10 10.8399 10 11.2662 10.1295C11.6436 10.2441 11.9946 10.4319 12.2993 10.6824C12.6435 10.9652 12.904 11.356 13.425 12.1374L13.6667 12.5" stroke="black" stroke-width="2" stroke-linecap="round" stroke-linejoin="round"/>
</svg>
